<?xml version="1.0" standalone="no"?><!DOCTYPE svg PUBLIC "-//W3C//DTD SVG 1.1//EN" "http://www.w3.org/Graphics/SVG/1.1/DTD/svg11.dtd"><svg t="1575725815650" class="icon" viewBox="0 0 1024 1024" version="1.1" xmlns="http://www.w3.org/2000/svg" p-id="4232" xmlns:xlink="http://www.w3.org/1999/xlink" width="128" height="128"><defs><style type="text/css"></style></defs><path d="M758.312 724.048c-7.656-18.72-22.88-31.784-38.872-43.568-31.48-23.208-67.048-38.728-102.464-54.624-30.376-13.632-60.848-27.168-90.504-42.28-19.208-9.784-25.696-38.624-14.824-57.344 1.152-1.984 3.512-3.288 5.344-4.864 9.088-7.84 19.448-14.608 27.08-23.672 55.768-66.208 70.48-142.232 49.456-224.992-10.464-41.208-33.496-75.216-70.544-98.184-29.048-18.008-61.232-22.368-94.592-21-59.104 2.424-103.304 28.856-130.296 82.088-20.288 40.008-25.784 82.592-20.24 126.808 8.08 64.392 33.504 119.488 85.872 160.208 15.088 11.728 16.752 37.912 2.528 50.44a121.712 121.712 0 0 1-27.968 18.312c-25.896 12.272-52.296 23.488-78.528 35.048-36.032 15.88-72.088 31.752-103.56 56.016-15.768 12.16-29.792 26.064-36.904 45.144a766.296 766.296 0 0 0-16.416 49.688c-6.56 22.168-0.592 38.496 18.896 50.848a143 143 0 0 0 27.168 13.192c31.008 11.392 63.52 16.016 96.136 19.616 65.6 7.232 131.464 8.848 197.44 9.792 47.816-1.648 95.656-2.712 143.432-5.128 40.968-2.072 81.784-6.4 121.792-16.088 18.632-4.512 36.96-10.064 52.96-21.208 15.712-10.944 23.248-25.76 17.776-44.64-5.832-20.136-12.232-40.224-20.168-59.608z" fill="#ffffff" p-id="4233"></path><path d="M874.28 650.152c-22.592-13.208-46.032-24.992-69.36-36.896-23.08-11.784-46.704-22.504-69.576-34.656-4.864-2.584-8.936-8.848-10.88-14.304-5.488-15.4-0.928-27.496 11.064-38.32 53.344-48.128 71.608-108.856 61.52-178.576-4.264-29.496-17.312-55.808-38.424-77.376-33.392-34.096-74.984-39.976-119.728-33.408-9.488 1.392-18.688 4.736-28.16 7.216 0.632 3.024 0.816 4.376 1.2 5.656 8.816 29.408 15.128 59.288 16.656 90.04 3.44 69.272-17.456 128.608-71.424 174.4-15.936 13.52-18.744 33.336-5.136 49.288 7.808 9.16 17.528 17.776 28.152 23.192 16.368 8.352 34.528 13.096 51.416 20.544 40.312 17.768 79.808 37.144 114.2 65.304 25.104 20.56 42.92 45.504 48.2 78.448 2.624 16.4 6.664 32.568 10.648 51.632 32.952-8.056 64.96-15.92 97-23.688 14.312-3.472 20.352-11.168 21.544-27.088 3.28-43.928-10.184-78.776-48.912-101.408z" fill="#ffffff" p-id="4234"></path></svg>