<?xml version="1.0" standalone="no"?><!DOCTYPE svg PUBLIC "-//W3C//DTD SVG 1.1//EN" "http://www.w3.org/Graphics/SVG/1.1/DTD/svg11.dtd"><svg t="1576080469892" class="icon" viewBox="0 0 1024 1024" version="1.1" xmlns="http://www.w3.org/2000/svg" p-id="2434" xmlns:xlink="http://www.w3.org/1999/xlink" width="128" height="128"><defs><style type="text/css"></style></defs><path d="M725.333333 874.666667H298.666667c-83.2 0-149.333333-66.133333-149.333334-149.333334V298.666667c0-83.2 66.133333-149.333333 149.333334-149.333334h426.666666c83.2 0 149.333333 66.133333 149.333334 149.333334v426.666666c0 83.2-66.133333 149.333333-149.333334 149.333334zM298.666667 192c-59.733333 0-106.666667 46.933333-106.666667 106.666667v426.666666c0 59.733333 46.933333 106.666667 106.666667 106.666667h426.666666c59.733333 0 106.666667-46.933333 106.666667-106.666667V298.666667c0-59.733333-46.933333-106.666667-106.666667-106.666667H298.666667z" fill="#ffffff" p-id="2435"></path><path d="M320 725.333333c-2.133333 0-6.4 0-8.533333-2.133333-10.666667-4.266667-17.066667-17.066667-10.666667-27.733333l149.333333-362.666667c4.266667-10.666667 17.066667-17.066667 27.733334-10.666667 10.666667 4.266667 17.066667 17.066667 10.666666 27.733334l-149.333333 362.666666c-2.133333 8.533333-10.666667 12.8-19.2 12.8z" fill="#ffffff" p-id="2436"></path><path d="M618.666667 725.333333c-8.533333 0-17.066667-4.266667-19.2-12.8l-149.333334-362.666666c-4.266667-10.666667 0-23.466667 10.666667-27.733334 10.666667-4.266667 23.466667 0 27.733333 10.666667l149.333334 362.666667c4.266667 10.666667 0 23.466667-10.666667 27.733333-2.133333 2.133333-4.266667 2.133333-8.533333 2.133333z" fill="#ffffff" p-id="2437"></path><path d="M554.666667 618.666667h-170.666667c-12.8 0-21.333333-8.533333-21.333333-21.333334s8.533333-21.333333 21.333333-21.333333h170.666667c12.8 0 21.333333 8.533333 21.333333 21.333333s-8.533333 21.333333-21.333333 21.333334zM746.666667 384h-128c-12.8 0-21.333333-8.533333-21.333334-21.333333s8.533333-21.333333 21.333334-21.333334h128c12.8 0 21.333333 8.533333 21.333333 21.333334s-8.533333 21.333333-21.333333 21.333333z" fill="#ffffff" p-id="2438"></path><path d="M682.666667 448c-12.8 0-21.333333-8.533333-21.333334-21.333333v-128c0-12.8 8.533333-21.333333 21.333334-21.333334s21.333333 8.533333 21.333333 21.333334v128c0 12.8-8.533333 21.333333-21.333333 21.333333z" fill="#ffffff" p-id="2439"></path></svg>