<?xml version="1.0" standalone="no"?><!DOCTYPE svg PUBLIC "-//W3C//DTD SVG 1.1//EN" "http://www.w3.org/Graphics/SVG/1.1/DTD/svg11.dtd"><svg t="1576080443018" class="icon" viewBox="0 0 1024 1024" version="1.1" xmlns="http://www.w3.org/2000/svg" p-id="2256" xmlns:xlink="http://www.w3.org/1999/xlink" width="128" height="128"><defs><style type="text/css"></style></defs><path d="M955.796605 811.617405h0.079922v-0.449561l-0.079922 0.449561z" p-id="2257" fill="#ffffff"></path><path d="M820.139083 1024c3.057015 0 6.213932-0.539473 9.41081-1.538498-9.220995 1.019005-18.481951 1.538498-27.752898 1.538498h18.342088zM773.045073 702.114341c-24.196371 0-43.8272 19.550907-43.8272 43.677347s19.630829 43.677346 43.8272 43.677346c24.226341 0 43.857171-19.550907 43.857171-43.677346s-19.630829-43.677346-43.857171-43.677347z" fill="#ffffff" p-id="2258"></path><path d="M801.787005 577.785756c-109.503063 0-198.286361 88.403668-198.286361 197.477151s88.773307 197.527102 198.286361 197.527103c109.483083 0 198.25639-88.45362 198.25639-197.527103 0-109.083473-88.773307-197.477151-198.25639-197.477151z m95.476761 313.583766c-5.814322 0.00999-11.388878-2.297756-15.504859-6.393756l-64.237268-64.007493c-13.057249 7.692488-28.222439 12.168117-44.476566 12.168117-48.422712 0-87.684371-39.081834-87.684371-87.334712 0-48.222907 39.251668-87.334712 87.684371-87.334712 48.422712 0 87.684371 39.111805 87.684371 87.334712 0 16.184195-4.49561 31.289444-12.208078 44.306732l64.257249 63.977522c3.946146 3.966127 6.423727 9.4208 6.423726 15.454907-0.00999 12.058224-9.8304 21.828683-21.938575 21.828683z" fill="#ffffff" p-id="2259"></path><path d="M206.518322 179.055141c24.226341 0 51.160039-27.02361 51.160039-51.160039V51.160039C257.678361 27.02361 240.8448 0 206.518322 0c-29.371317 0-51.160039 27.02361-51.160039 51.160039v76.735063c0.00999 24.126439 26.933698 51.160039 51.160039 51.160039z m230.21518 0c41.469502 0 51.160039-27.02361 51.160039-51.160039V51.160039c0-24.126439-14.286049-51.160039-51.160039-51.160039-36.214634 0-51.160039 27.02361-51.160039 51.160039v76.735063c0 24.126439 17.812605 51.160039 51.160039 51.160039z m230.205191 0c33.317463 0 51.160039-27.02361 51.160039-51.160039V51.160039C718.088741 27.02361 700.256156 0 666.938693 0c-29.371317 0-51.160039 27.02361-51.160039 51.160039v76.735063c0 24.126439 26.953678 51.160039 51.160039 51.160039z m153.470127 844.085698c3.047024 0 6.183961-0.539473 9.360858-1.528507a250.125737 250.125737 0 0 1-27.623024 1.528507h18.262166zM553.659317 775.592585c0-136.686517 111.251356-247.488312 248.497327-247.488312 24.725854 0 48.602537 3.616468 71.150517 10.319922l-1.728312-384.944078c0-24.136429-26.923707-51.160039-51.160039-51.160039H769.24878v51.160039c0 48.262868-53.877385 76.735063-102.310087 76.735063s-102.310088-28.472195-102.310088-76.735063v-51.160039h-25.585015v51.160039c0 48.262868-54.257015 76.735063-102.310088 76.735063-78.063766 0-102.310088-54.05721-102.310087-102.310087v-25.585015h-25.585015v25.575024c-0.049951 48.502634-38.51239 101.910478-104.637815 101.910478-48.432702 0-99.992351-36.414439-99.992351-101.910478v-25.585014h-25.575024c-24.226341 0-51.160039 27.02361-51.160039 51.160039v811.4176c0 24.126439 26.923707 58.253112 51.160039 58.253112h723.513444c-137.23598 0-248.487337-110.811785-248.487337-247.548254z m-372.716019-391.917268s533.499005 2.347707 534.877658 0c24.755824-0.899122 53.427824 14.73561 53.427824 51.160039 0 34.41639-26.923707 51.160039-51.160039 51.160039H180.943298c-24.226341 0-51.160039-12.637659-51.160039-51.160039 0.00999-32.668098 26.933698-51.160039 51.160039-51.160039z m230.20519 511.57042H180.943298c-20.180293 0-51.160039-11.48878-51.160039-51.160039 0-30.020683 30.969756-53.907356 51.160039-53.907357l230.20519 2.747318c20.180293 0 51.160039 11.089171 51.160039 51.160039 0 31.778966-30.969756 51.160039-51.160039 51.160039z m51.160039-204.630166H180.943298c-24.226341 0-51.160039-15.98439-51.160039-51.160039 0-38.822088 26.923707-51.160039 51.160039-51.160039h281.365229c24.226341 0 51.160039 19.081366 51.160039 51.160039 0 24.136429-26.933698 51.160039-51.160039 51.160039z" fill="#ffffff" p-id="2260"></path></svg>