<?xml version="1.0" standalone="no"?><!DOCTYPE svg PUBLIC "-//W3C//DTD SVG 1.1//EN" "http://www.w3.org/Graphics/SVG/1.1/DTD/svg11.dtd"><svg t="1575725847237" class="icon" viewBox="0 0 1024 1024" version="1.1" xmlns="http://www.w3.org/2000/svg" p-id="5228" xmlns:xlink="http://www.w3.org/1999/xlink" width="128" height="128"><defs><style type="text/css"></style></defs><path d="M938.704808 95.975031H800.002366V32.045558c0-17.806498-14.23906-32.045558-32.040443-32.045558-17.644854 0-32.050674 14.23906-32.050674 32.045558v63.929473H543.966303V32.045558c0-17.806498-14.244176-32.045558-32.045558-32.045558-17.644854 0-32.045558 14.23906-32.045559 32.045558v63.929473H288.085746V32.045558c0-17.806498-14.244176-32.045558-32.045558-32.045558-17.639738 0-32.045558 14.23906-32.045559 32.045558v63.929473H85.292187c-47.097958 0-85.293178 38.19522-85.293178 85.293178v757.43759c0 47.097958 38.19522 85.293178 85.293178 85.293178h853.413644c47.097958 0 85.293178-38.19522 85.293178-85.293178V181.429853c-0.001023-47.259603-38.19522-85.454823-85.294201-85.454822z m21.363706 842.730768c0 11.813366-9.544201 21.363706-21.363706 21.363706H85.292187c-11.813366 0-21.363706-9.55034-21.363705-21.363706V181.429853c0-11.819504 9.55034-21.368821 21.363705-21.368821h138.702442v63.934588c0 17.639738 14.244176 32.045558 32.045559 32.045558 17.639738 0 32.045558-14.244176 32.045558-32.045558v-63.934588h191.788417v63.934588c0 17.639738 14.23906 32.045558 32.045559 32.045558 17.639738 0 32.045558-14.244176 32.045558-32.045558v-63.934588h191.944946v63.934588c0 17.639738 14.244176 32.045558 32.050674 32.045558 17.639738 0 32.040443-14.244176 32.040443-32.045558v-63.934588h138.702442c11.819504 0 21.363706 9.55034 21.363706 21.368821v757.275946z" fill="#ffffff" p-id="5229"></path><path d="M223.050338 492.427175H351.491408v-96.457919H223.050338v96.457919z m0 160.592005H351.491408v-96.457919H223.050338v96.457919z m0 160.424221H351.491408v-96.452803H223.050338v96.452803z m224.89285 0h128.44107v-96.452803H447.943188v96.452803z m0-160.424221h128.44107v-96.457919H447.943188v96.457919z m0-160.592005h128.44107v-96.457919H447.943188v96.457919z m224.568538 321.016226h128.434932v-96.452803H672.511726v96.452803z m0-160.424221h128.434932v-96.457919H672.511726v96.457919z m0-160.592005h128.434932v-96.457919H672.511726v96.457919z" fill="#ffffff" p-id="5230"></path></svg>