<?xml version="1.0" standalone="no"?><!DOCTYPE svg PUBLIC "-//W3C//DTD SVG 1.1//EN" "http://www.w3.org/Graphics/SVG/1.1/DTD/svg11.dtd"><svg t="1575726294716" class="icon" viewBox="0 0 1024 1024" version="1.1" xmlns="http://www.w3.org/2000/svg" p-id="16683" xmlns:xlink="http://www.w3.org/1999/xlink" width="128" height="128"><defs><style type="text/css"></style></defs><path d="M281.5488 507.6992c9.8816 12.288 20.736 23.8592 30.7712 36.0448 17.7664 21.6064 17.6128 39.0144-0.768 59.8528-7.5264 8.5504-16.3328 15.9744-23.9616 24.4224-8.3456 9.216-17.408 18.2784-23.7056 28.8768-14.6432 24.9344-14.848 51.2-0.4096 76.2368 13.9776 24.2176 36.5056 35.328 64.6656 35.328H510.5664v-0.0512h87.1936c32.0512 0 64.2048 0 96.256-0.1536 8.0384 0 16.384-1.1264 24.064-3.4304 48.128-14.7456 66.304-73.3184 35.0208-114.944-10.9568-14.592-24.9856-26.9312-37.6832-40.2432-25.4464-26.5728-25.6-43.8784-1.536-71.424 13.312-15.2576 26.5216-30.6176 38.4-46.8992 48.64-66.4064 67.8912-140.544 51.712-221.0304-22.8864-113.664-90.624-192.3072-202.496-227.9936a318.0544 318.0544 0 0 0-96.9216-15.872c-73.216 0-140.5952 28.672-200.0384 83.968-69.888 64.9216-98.304 147.2512-90.368 241.2544 4.9664 58.9824 30.5152 110.1312 67.4304 156.0576z m-8.448-272.2304A237.6192 237.6192 0 0 1 335.872 143.2064 280.7296 280.7296 0 0 1 417.28 89.1904a223.5392 223.5392 0 0 1 87.2448-17.6128c26.5728 0 54.4256 4.608 82.8416 13.6704 47.3088 15.104 85.7088 39.1168 114.176 71.424 28.2624 32.1024 47.616 73.216 57.5488 122.368 6.656 33.1264 6.2464 65.6384-1.2288 96.6144a251.2384 251.2384 0 0 1-42.7008 89.2416c-10.8544 14.848-23.2448 29.184-35.9936 43.8272-39.5776 45.3632-38.6048 88.5248 2.9696 131.9424 4.096 4.352 8.2432 8.448 12.288 12.3904 8.2432 8.2944 16.0768 16.0768 21.8624 23.7568a30.464 30.464 0 0 1 5.0176 28.16 25.344 25.344 0 0 1-16.8448 16.6912 38.6048 38.6048 0 0 1-10.7008 1.4336c-35.072 0.1536-69.7856 0.2048-96.0512 0.2048h-43.5712l-43.6224-0.0512H404.8384l-76.6976 0.0512c-14.7456 0-20.48-4.8128-24.9344-12.544-6.3488-11.008-6.2976-20.0704 0.256-31.1808 2.6624-4.5056 7.8336-10.1376 13.312-16.128l4.9664-5.376c2.6624-2.9696 5.9904-6.144 9.472-9.5744 4.608-4.4544 9.728-9.5232 14.848-15.2576 32.9216-37.376 33.5872-79.2576 1.792-117.9136-5.12-6.2464-10.24-12.0832-15.2064-17.7664a562.5344 562.5344 0 0 1-15.2576-17.92c-35.0208-43.52-53.8624-86.6304-57.7024-131.7376-3.4304-40.96 1.024-78.7456 13.4144-112.4352zM995.9424 897.024c-0.1536-44.9024-30.6176-75.008-76.1344-75.008a2490901.248 2490901.248 0 0 0-819.712 0c-42.8544 0-73.728 30.2592-73.984 72.3456-0.1536 28.8768-0.0512 57.8048 0 86.7328 0 4.2496 0.4096 8.448 0.6144 13.1072h969.216c0-32.9216 0.1024-65.024 0-97.1264z m-45.7216 52.0192H71.7824c0-18.0736 0-36.4032 0.1024-54.4768 0.0512-17.2032 10.6496-27.4432 28.2624-27.4432a2301881.1904 2301881.1904 0 0 1 819.6096 0c6.9632 0 16.5376 1.3312 22.784 7.5264 6.2976 6.144 7.68 15.6672 7.68 22.528v51.8656z" fill="#ffffff" p-id="16684"></path><path d="M274.7392 960.768h453.7856v33.6896H274.7392z" fill="#ffffff" p-id="16685"></path></svg>