<?xml version="1.0" standalone="no"?><!DOCTYPE svg PUBLIC "-//W3C//DTD SVG 1.1//EN" "http://www.w3.org/Graphics/SVG/1.1/DTD/svg11.dtd"><svg t="1576080410775" class="icon" viewBox="0 0 1148 1024" version="1.1" xmlns="http://www.w3.org/2000/svg" p-id="1943" xmlns:xlink="http://www.w3.org/1999/xlink" width="143.5" height="128"><defs><style type="text/css"></style></defs><path d="M1135.541073 879.640976L656.408976 48.302829a93.833366 93.833366 0 0 0-163.340488 0L13.93639 879.640976a93.833366 93.833366 0 0 0 81.720195 141.361951h958.164293a93.833366 93.833366 0 0 0 81.720195-141.361951z m-75.326439 50.375804a6.94322 6.94322 0 0 1-6.393756 3.496586H95.656585a6.94322 6.94322 0 0 1-6.393756-10.989268L568.394927 93.483707a6.94322 6.94322 0 0 1 12.163122 0L1060.214634 923.073561c1.24878 2.147902 1.24878 4.795317 0 6.943219z" fill="#ffffff" p-id="1944"></path><path d="M531.281171 325.806829v341.216781a43.457561 43.457561 0 0 0 86.915122 0V375.733073a43.457561 43.457561 0 0 0-86.915122 0v-49.951219z m-9.240976 491.844683a52.698537 52.698537 0 1 0 105.397073 0 52.698537 52.698537 0 0 0-105.397073 0z" fill="#ffffff" p-id="1945"></path></svg>