<?xml version="1.0" standalone="no"?><!DOCTYPE svg PUBLIC "-//W3C//DTD SVG 1.1//EN" "http://www.w3.org/Graphics/SVG/1.1/DTD/svg11.dtd"><svg t="1575725938386" class="icon" viewBox="0 0 1024 1024" version="1.1" xmlns="http://www.w3.org/2000/svg" p-id="6082" xmlns:xlink="http://www.w3.org/1999/xlink" width="128" height="128"><defs><style type="text/css"></style></defs><path d="M889.060539 890.42944a212.546159 212.546159 0 0 0 44.469396-130.263148 215.252356 215.252356 0 1 0-81.771028 168.223044l81.259045 80.966482 37.667333-37.521053z m-170.78296 31.157834a161.420982 161.420982 0 1 1 162.006105-161.420982A161.932965 161.932965 0 0 1 718.277579 921.587274z" fill="#ffffff" p-id="6083"></path><path d="M628.461101 969.34799H154.803522a39.495845 39.495845 0 0 1-40.519812-38.471879V93.271633a39.495845 39.495845 0 0 1 40.519812-38.471879h687.885969a39.495845 39.495845 0 0 1 40.373531 38.471879v495.307154a255.260184 255.260184 0 0 1 61.2917 15.359495V80.472053A81.990449 81.990449 0 0 0 860.682043 0.017554h-724.090495A81.917308 81.917308 0 0 0 53.284571 80.472053v863.057357A81.917308 81.917308 0 0 0 136.81097 1023.983909h533.26705a253.431673 253.431673 0 0 1-41.616919-54.635919z" fill="#ffffff" p-id="6084"></path><path d="M227.13943 365.719823l88.719371-214.37467h52.368565L457.019877 365.719823h-53.392531l-20.845029-49.516087H301.450132L280.605102 365.719823z m115.049935-162.664369L311.689795 277.951279h61.072279z" fill="#ffffff" p-id="6085"></path><path d="M519.701246 153.612507m29.256182 0l234.049453 0q29.256182 0 29.256181 29.256182l0 0q0 29.256182-29.256181 29.256181l-234.049453 0q-29.256182 0-29.256182-29.256181l0 0q0-29.256182 29.256182-29.256182Z" fill="#ffffff" p-id="6086"></path><path d="M519.701246 299.893415m29.256182 0l234.049453 0q29.256182 0 29.256181 29.256182l0 0q0 29.256182-29.256181 29.256181l-234.049453 0q-29.256182 0-29.256182-29.256181l0 0q0-29.256182 29.256182-29.256182Z" fill="#ffffff" p-id="6087"></path><path d="M314.10343 759.288606a24.20949 24.20949 0 0 1-17.626849-7.314045l-62.023105-62.169386a24.867754 24.867754 0 0 1 35.180558-35.180558l44.469396 44.469396L420.742212 592.455231a24.867754 24.867754 0 0 1 35.180558 35.180558l-124.338771 124.338772a24.063209 24.063209 0 0 1-17.480569 7.314045z" fill="#ffffff" p-id="6088"></path></svg>