<?xml version="1.0" standalone="no"?><!DOCTYPE svg PUBLIC "-//W3C//DTD SVG 1.1//EN" "http://www.w3.org/Graphics/SVG/1.1/DTD/svg11.dtd"><svg t="1575736160539" class="icon" viewBox="0 0 1024 1024" version="1.1" xmlns="http://www.w3.org/2000/svg" p-id="6836" xmlns:xlink="http://www.w3.org/1999/xlink" width="128" height="128"><defs><style type="text/css"></style></defs><path d="M861.184 465.408v465.408H162.816V465.408h698.368m0-93.184H162.816c-51.2 0-93.184 41.984-93.184 93.184v465.408c0 51.2 41.984 93.184 93.184 93.184h698.368c51.2 0 93.184-41.984 93.184-93.184V465.408c0-51.2-41.984-93.184-93.184-93.184z" fill="#d81e06" p-id="6837"></path><path d="M500.224 93.184c102.4 0 186.368 83.968 186.368 186.368v93.184H314.368V279.04c0-102.4 83.456-185.856 185.856-185.856m0-93.184c-153.6 0-279.04 125.44-279.04 279.04v186.368h558.592V279.04c0-153.6-125.952-279.04-279.552-279.04zM418.816 628.224c0 51.2 41.472 93.184 93.184 93.184s93.184-41.472 93.184-93.184c0-51.2-41.472-93.184-93.184-93.184s-93.184 41.984-93.184 93.184z" fill="#d81e06" p-id="6838"></path><path d="M512 861.184c-25.6 0-46.592-20.992-46.592-46.592v-162.816c0-25.6 20.992-46.592 46.592-46.592s46.592 20.992 46.592 46.592v162.816c0 25.6-20.992 46.592-46.592 46.592z" fill="#d81e06" p-id="6839"></path></svg>