<?xml version="1.0" standalone="no"?><!DOCTYPE svg PUBLIC "-//W3C//DTD SVG 1.1//EN" "http://www.w3.org/Graphics/SVG/1.1/DTD/svg11.dtd"><svg t="1575725552484" class="icon" viewBox="0 0 1238 1024" version="1.1" xmlns="http://www.w3.org/2000/svg" p-id="2380" xmlns:xlink="http://www.w3.org/1999/xlink" width="154.75" height="128"><defs><style type="text/css"></style></defs><path d="M623.304348 45.166982L256.806553 262.613737c-10.969124 6.452426-23.228733 9.678639-35.488343 9.678639H135.500945c-39.359798 0-70.976686 32.26213-70.976685 70.976685v346.495274c0 39.359798 32.26213 70.976686 70.976685 70.976686h85.817265c12.259609 0 24.519219 3.871456 35.488343 9.678639l366.497795 213.575299c47.10271 27.745432 106.465028-6.452426 106.465028-61.298047V106.465028c0.645243-54.845621-59.362319-89.688721-106.465028-61.298046z m413.600504 101.303087c-19.357278-16.131065-49.038437-12.259609-65.169502 7.097669s-12.259609 49.038437 7.742911 63.879017C1072.393195 290.359168 1125.303088 399.405167 1125.303088 516.194077c0 118.079395-54.200378 228.415879-148.405798 300.68305-20.647763 16.131065-23.873976 44.521739-7.742911 63.879017 9.033396 11.614367 23.228733 17.42155 36.133586 17.42155 9.678639 0 19.357278-3.871456 28.390674-9.678639 117.434152-90.333963 183.89414-226.480151 183.89414-373.595463 0.645243-143.243856-65.169502-278.744802-180.667927-368.433523z" fill="#fff" p-id="2381"></path><path d="M940.118463 335.52615c-17.42155-17.42155-47.10271-18.712035-65.814745-0.645243-17.42155 17.42155-18.712035 47.10271-0.645243 65.169503 30.971645 32.26213 47.747952 72.912413 47.747952 117.434152s-16.776307 85.172023-47.747952 117.434153c-17.42155 17.42155-17.42155 47.10271 0.645243 65.169502 9.033396 9.033396 20.647763 13.550095 32.26213 13.550094 12.259609 0 23.873976-4.516698 32.907372-14.195337 47.747952-49.038437 73.557656-112.917454 73.557656-181.313169 1.935728-69.6862-25.164461-133.565217-72.912413-182.603655z" fill="#fff" p-id="2382"></path></svg>