<?xml version="1.0" standalone="no"?><!DOCTYPE svg PUBLIC "-//W3C//DTD SVG 1.1//EN" "http://www.w3.org/Graphics/SVG/1.1/DTD/svg11.dtd"><svg t="1575736000878" class="icon" viewBox="0 0 1312 1024" version="1.1" xmlns="http://www.w3.org/2000/svg" p-id="3877" xmlns:xlink="http://www.w3.org/1999/xlink" width="164" height="128"><defs><style type="text/css"></style></defs><path d="M1283.411737 964.025251h-89.782558V444.363806c0-69.312135-56.383446-125.695581-125.695581-125.695581H826.837503c-24.181436 0-46.68693 6.823474-65.840543 18.674772V134.314707c0-69.312135-56.383446-125.695581-125.695581-125.695581H249.954641c-69.312135 0-125.695581 56.383446-125.695581 125.695581v829.710544H28.969839C13.048398 964.025251 0 977.07365 0 992.99509v2.035071c0 15.92144 13.048398 28.969839 28.969839 28.969839h1254.441898c15.92144 0 28.969839-13.048398 28.969839-28.969839v-2.035071c0-15.92144-13.048398-28.969839-28.969839-28.969839zM826.837503 378.523264h241.096095c36.272153 0 65.840542 29.568389 65.840543 65.840542v519.661445H760.99696V444.363806c0-36.272153 29.448679-65.840542 65.840543-65.840542z m-642.723404-244.208557c0-36.272153 29.568389-65.840542 65.840542-65.840543h385.346738c36.272153 0 65.840542 29.568389 65.840543 65.840543v829.710544H184.114099V134.314707z" fill="#1296db" p-id="3878"></path><path d="M947.385551 572.812719m-56.503157 0a56.503156 56.503156 0 1 0 113.006313 0 56.503156 56.503156 0 1 0-113.006313 0Z" fill="#1296db" p-id="3879"></path><path d="M947.385551 786.136077m-56.503157 0a56.503156 56.503156 0 1 0 113.006313 0 56.503156 56.503156 0 1 0-113.006313 0Z" fill="#1296db" p-id="3880"></path><path d="M351.947627 268.988543m-56.503157 0a56.503156 56.503156 0 1 0 113.006313 0 56.503156 56.503156 0 1 0-113.006313 0Z" fill="#1296db" p-id="3881"></path><path d="M533.308394 268.988543m-56.503157 0a56.503156 56.503156 0 1 0 113.006313 0 56.503156 56.503156 0 1 0-113.006313 0Z" fill="#1296db" p-id="3882"></path><path d="M351.947627 504.817395m-56.503157 0a56.503156 56.503156 0 1 0 113.006313 0 56.503156 56.503156 0 1 0-113.006313 0Z" fill="#1296db" p-id="3883"></path><path d="M533.308394 504.817395m-56.503157 0a56.503156 56.503156 0 1 0 113.006313 0 56.503156 56.503156 0 1 0-113.006313 0Z" fill="#1296db" p-id="3884"></path><path d="M351.947627 740.646247m-56.503157 0a56.503156 56.503156 0 1 0 113.006313 0 56.503156 56.503156 0 1 0-113.006313 0Z" fill="#1296db" p-id="3885"></path><path d="M533.308394 740.646247m-56.503157 0a56.503156 56.503156 0 1 0 113.006313 0 56.503156 56.503156 0 1 0-113.006313 0Z" fill="#1296db" p-id="3886"></path></svg>