<?xml version="1.0" standalone="no"?><!DOCTYPE svg PUBLIC "-//W3C//DTD SVG 1.1//EN" "http://www.w3.org/Graphics/SVG/1.1/DTD/svg11.dtd"><svg t="1575736182576" class="icon" viewBox="0 0 1102 1024" version="1.1" xmlns="http://www.w3.org/2000/svg" p-id="8196" xmlns:xlink="http://www.w3.org/1999/xlink" width="137.75" height="128"><defs><style type="text/css"></style></defs><path d="M913.723077 133.907692c-78.769231-78.769231-204.8-78.769231-283.569231 0L441.107692 307.2c-15.753846 15.753846-15.753846 39.384615 0 47.261538 15.753846 15.753846 39.384615 15.753846 47.261539 0l181.169231-173.292307c47.261538-47.261538 133.907692-47.261538 181.16923 0 23.630769 23.630769 39.384615 55.138462 39.384616 86.646154 0 31.507692-15.753846 63.015385-39.384616 86.646153L677.415385 535.630769c-7.876923 15.753846-7.876923 39.384615 0 55.138462 7.876923 0 15.753846 7.876923 31.507692 7.876923 7.876923 0 15.753846 0 23.630769-7.876923l181.169231-173.292308c78.769231-86.646154 78.769231-212.676923 0-283.569231zM551.384615 661.661538l-181.16923 173.292308c-23.630769 23.630769-55.138462 39.384615-94.523077 39.384616-31.507692 0-70.892308-15.753846-94.523077-39.384616s-31.507692-55.138462-31.507693-86.646154c0-31.507692 15.753846-63.015385 39.384616-86.646154l181.169231-173.292307c15.753846-15.753846 15.753846-39.384615 0-47.261539-15.753846-23.630769-39.384615-23.630769-55.138462-7.876923L141.784615 606.523077c-39.384615 39.384615-63.015385 86.646154-63.015384 141.784615s23.630769 102.4 63.015384 141.784616 86.646154 55.138462 141.784616 55.138461 102.4-15.753846 141.784615-55.138461L606.523077 708.923077c15.753846-15.753846 15.753846-39.384615 0-47.261539-15.753846-15.753846-39.384615-15.753846-55.138462 0z" fill="#FF7D7D" p-id="8197"></path><path d="M283.569231 984.615385c-63.015385 0-126.030769-23.630769-173.292308-70.892308-47.261538-47.261538-70.892308-102.4-70.892308-165.415385s23.630769-126.030769 70.892308-165.415384l181.169231-173.292308c31.507692-31.507692 78.769231-31.507692 102.4 0 15.753846 15.753846 23.630769 31.507692 23.630769 55.138462 0 7.876923-7.876923 31.507692-23.630769 47.261538L220.553846 685.292308c-23.630769 15.753846-31.507692 39.384615-31.507692 63.015384 0 23.630769 7.876923 47.261538 23.630769 63.015385 31.507692 31.507692 94.523077 31.507692 126.030769 0L527.753846 630.153846c23.630769-23.630769 70.892308-23.630769 102.4 0 15.753846 15.753846 23.630769 31.507692 23.630769 55.138462 0 23.630769-7.876923 39.384615-23.630769 55.138461l-181.169231 173.292308c-39.384615 47.261538-102.4 70.892308-165.415384 70.892308zM551.384615 661.661538l23.63077 23.63077-23.63077-23.63077z m157.538462-23.630769c-23.630769 0-39.384615-7.876923-55.138462-23.630769-15.753846-15.753846-23.630769-31.507692-23.630769-55.138462 0-23.630769 7.876923-39.384615 23.630769-55.138461l181.169231-173.292308c15.753846-15.753846 23.630769-39.384615 23.630769-63.015384 0-23.630769-7.876923-47.261538-23.630769-63.015385-39.384615-31.507692-94.523077-31.507692-126.030769 0L519.876923 385.969231c-31.507692 31.507692-78.769231 31.507692-102.4 0-15.753846-15.753846-23.630769-31.507692-23.630769-55.138462 0-15.753846 7.876923-39.384615 23.630769-55.138461l181.169231-173.292308c94.523077-94.523077 244.184615-94.523077 338.707692 0 47.261538 47.261538 70.892308 102.4 70.892308 165.415385s-23.630769 126.030769-70.892308 173.292307L756.184615 614.4c-7.876923 15.753846-31.507692 23.630769-47.261538 23.630769zM385.969231 212.676923c23.630769 0 39.384615-15.753846 39.384615-31.507692V39.384615c0-23.630769-15.753846-39.384615-39.384615-39.384615-15.753846 0-31.507692 15.753846-31.507693 31.507692v141.784616c0 7.876923 7.876923 15.753846 7.876924 23.630769 7.876923 7.876923 15.753846 15.753846 23.630769 15.753846zM897.969231 677.415385c-7.876923-7.876923-15.753846-7.876923-23.630769-7.876923-7.876923 0-15.753846 0-23.63077 7.876923-15.753846 7.876923-15.753846 31.507692 0 47.261538l102.4 102.4c15.753846 15.753846 39.384615 15.753846 47.261539 0 15.753846-15.753846 15.753846-39.384615 0-47.261538l-102.4-102.4zM1008.246154 535.630769H866.461538c-7.876923 0-15.753846 0-23.630769 7.876923-7.876923 7.876923-7.876923 15.753846-7.876923 23.63077 0 15.753846 15.753846 31.507692 39.384616 31.507692h141.784615c23.630769 0 39.384615-15.753846 39.384615-31.507692-7.876923-15.753846-23.630769-31.507692-47.261538-31.507693zM740.430769 661.661538c-23.630769 0-39.384615 15.753846-39.384615 31.507693v141.784615c0 15.753846 15.753846 31.507692 39.384615 31.507692s39.384615-15.753846 39.384616-31.507692V693.169231c0-7.876923-7.876923-15.753846-7.876923-23.630769-15.753846-7.876923-23.630769-7.876923-31.507693-7.876924zM228.430769 196.923077c7.876923 7.876923 15.753846 7.876923 23.630769 7.876923 7.876923 0 15.753846 0 23.63077-7.876923 15.753846-15.753846 15.753846-39.384615 0-47.261539L181.169231 47.261538c-15.753846-15.753846-39.384615-15.753846-47.261539 0-15.753846 15.753846-15.753846 39.384615 0 47.261539l94.523077 102.4zM118.153846 338.707692h141.784616c7.876923 0 15.753846 0 23.630769-7.876923 7.876923-7.876923 7.876923-15.753846 7.876923-23.630769 0-15.753846-15.753846-31.507692-39.384616-31.507692H110.276923c-15.753846-7.876923-31.507692 7.876923-31.507692 31.507692 0 15.753846 15.753846 31.507692 39.384615 31.507692z" fill="#FF7D7D" p-id="8198"></path></svg>