<?xml version="1.0" standalone="no"?><!DOCTYPE svg PUBLIC "-//W3C//DTD SVG 1.1//EN" "http://www.w3.org/Graphics/SVG/1.1/DTD/svg11.dtd"><svg t="1575726004656" class="icon" viewBox="0 0 1024 1024" version="1.1" xmlns="http://www.w3.org/2000/svg" p-id="8505" xmlns:xlink="http://www.w3.org/1999/xlink" width="128" height="128"><defs><style type="text/css"></style></defs><path d="M980.48 673.28l-57.856-19.968c15.872-45.568 23.552-93.184 23.552-141.312 0-196.608-132.096-368.64-322.048-419.328L640 33.28c216.576 57.856 367.616 254.464 367.616 478.72-0.512 55.296-9.216 109.568-27.136 161.28zM512 1007.104c-272.896 0-495.104-222.208-495.104-495.104S239.104 16.896 512 16.896c6.656 0 13.312 0 19.456 0.512l-2.56 61.44c-5.632 0-11.264-0.512-17.408-0.512-239.104 0-433.664 194.56-433.664 433.664s194.56 433.664 433.664 433.664c145.92 0 281.6-72.704 361.984-194.56l51.2 33.792c-91.648 139.264-245.76 222.208-412.672 222.208z" fill="#ffffff" p-id="8506"></path><path d="M471.04 288.768h51.2v307.2H471.04z" fill="#ffffff" p-id="8507"></path><path d="M472.576 544.768h266.24v51.2h-266.24z" fill="#ffffff" p-id="8508"></path></svg>